<?xml version="1.0" encoding="UTF-8" standalone="no"?>
<svg width="37px" height="31px" viewBox="0 0 37 31" version="1.1" xmlns="http://www.w3.org/2000/svg" xmlns:xlink="http://www.w3.org/1999/xlink">
    <!-- Generator: Sketch 45.2 (43514) - http://www.bohemiancoding.com/sketch -->
    <title>clickdrive_logo</title>
    <desc>Created with Sketch.</desc>
    <defs></defs>
    <g id="Work" stroke="none" stroke-width="1" fill="none" fill-rule="evenodd">
        <g id="vehicle:status" transform="translate(-90.000000, -799.000000)" fill="#6B7E8B">
            <g id="clickdrive_device" transform="translate(63.000000, 755.884615)">
                <g id="clickdrive_logo" transform="translate(27.000000, 42.452542)">
                    <g id="g318" transform="translate(12.702516, 16.182368) scale(-1, 1) rotate(-180.000000) translate(-12.702516, -16.182368) translate(0.240977, 0.951599)" fill-rule="nonzero">
                        <path d="M22.4937108,28.8203117 C20.8212373,29.227565 19.0958373,29.3851253 17.3651448,29.2943279 C12.5978012,29.0432996 8.21285077,26.9335939 5.01874383,23.3510999 C1.82596006,19.7726118 0.202443397,15.151288 0.453843695,10.3416931 C0.620561787,7.10770118 1.73466205,3.90041439 3.6717675,1.07100527 C3.99461841,0.598324364 4.51329692,0.345960832 5.03991439,0.345960832 C5.36673477,0.345960832 5.69487832,0.443434577 5.98332708,0.643723095 C6.73752797,1.16981427 6.92541662,2.21264981 6.40541495,2.97374618 C4.81630044,5.29709298 3.90464357,7.90351422 3.76835814,10.5166117 C3.56591475,14.4329199 4.88510473,18.1970088 7.48643623,21.1105391 C10.0890909,24.0254046 13.6563288,25.7425448 17.5371555,25.9481744 C18.9502898,26.0229488 20.3554851,25.8947641 21.7156931,25.5622852 C22.6061794,25.3446383 23.5032815,25.8987699 23.7189565,26.7973977 C23.9319852,27.6973608 23.3841971,28.6040001 22.4937108,28.8203117" id="path320"></path>
                    </g>
                    <g id="g322" transform="translate(33.400031, 21.323321) scale(-1, 1) rotate(-180.000000) translate(-33.400031, -21.323321) translate(29.938493, 11.631013)" fill-rule="nonzero">
                        <path d="M5.29263784,17.58292 C4.95258586,18.4428253 3.98667945,18.8607607 3.13456476,18.5175997 C2.28377323,18.1731035 1.86962432,17.198366 2.2096763,16.3384606 C2.73761692,15.0085449 3.03929728,13.4756701 3.13456476,11.6557151 C3.29995969,8.48180974 2.46769239,5.41071914 0.730384022,2.76958122 C0.223613949,2.00047331 0.431349984,0.961643534 1.19481299,0.447569673 C1.47664596,0.25796321 1.79552739,0.167165749 2.11308566,0.167165749 C2.64896524,0.167165749 3.17558271,0.431546592 3.49711045,0.917580061 C5.6300435,4.15824827 6.65284577,7.93168394 6.44907921,11.8306337 C6.33793382,14.0244606 5.95686389,15.9045022 5.29263784,17.58292" id="path324"></path>
                    </g>
                    <g id="g326" transform="translate(24.530404, 13.237797) scale(-1, 1) rotate(-180.000000) translate(-24.530404, -13.237797) translate(14.145788, 0.083950)">
                        <path d="M19.8473919,23.4792846 C19.9638299,23.6381802 20.0511585,23.8237808 20.0948227,24.0280751 C20.254925,24.7851657 19.7772645,25.5289038 19.027033,25.6877993 C18.4474892,25.8119782 18.0214319,25.5128807 17.5702345,25.0709107 L1.24509305,6.56158116 C1.16702664,6.48280101 1.09557603,6.39867983 1.02544858,6.31188814 L0.90636423,6.15566309 C0.625854425,5.76176234 0.41811839,5.30643978 0.310942473,4.80037746 C-0.100560119,2.86291987 1.12468554,0.957508439 3.04591308,0.547584606 C4.53049799,0.233799262 5.99655868,0.901427654 6.7758996,2.11651133 L19.8473919,23.4792846 Z" id="path328"></path>
                    </g>
                </g>
            </g>
        </g>
    </g>
</svg>